<svg width="434" height="523" viewBox="0 0 434 523" fill="none" xmlns="http://www.w3.org/2000/svg">
<path opacity="0.4" d="M240.693 533.488C387.215 464.66 462.898 364.364 464.097 365.335C467.765 368.304 415.346 447.029 316.888 516.288C246.479 565.816 186.679 591.589 126.328 610.5C88.3271 622.405 146.769 601.168 201.223 641.194C238.566 668.646 240.137 698.547 241.723 674.124C242.452 662.865 241.984 646.742 240.969 634.69C275.359 644.936 324.53 654.404 386.094 647.273C453.154 639.5 514.964 613.382 569.902 570.236C589.197 555.089 572.178 559.59 562.328 561.578C538.315 566.428 494.316 571.395 445.536 559.191C478.554 559.191 691.759 543.042 756.697 347.3C825.854 138.843 731.287 -120.134 498.772 -120.134C266.059 -120.134 234.656 241.506 238.784 308.437C227.029 272.286 222.137 219.015 230.19 172.89C233.24 155.431 237.276 135.5 216.704 161.106C177.157 210.331 125.308 305.246 140.374 432.944C121.997 417.013 105.52 406.068 90.0769 397.739C72.7875 388.412 65.3246 384.731 84.6392 410.023C99.942 430.061 118.522 475.822 95.2245 523.419C77.3455 559.954 46.503 577.964 13.6643 581.697C-2.05418 583.487 -3.34472 593.88 7.83513 593.213C58.6157 590.188 148.113 576.978 240.693 533.488Z" fill="white"/>
</svg>
